<?xml version="1.0" encoding="UTF-8" standalone="no"?><!DOCTYPE svg PUBLIC "-//W3C//DTD SVG 1.1//EN" "http://www.w3.org/Graphics/SVG/1.1/DTD/svg11.dtd"><svg width="100%" height="100%" viewBox="0 0 500 500" version="1.1" xmlns="http://www.w3.org/2000/svg" xmlns:xlink="http://www.w3.org/1999/xlink" xml:space="preserve" xmlns:serif="http://www.serif.com/" style="fill-rule:evenodd;clip-rule:evenodd;stroke-linejoin:round;stroke-miterlimit:2;"><g><path d="M129.214,395.206c-0.787,0 -1.108,-0.379 -1.108,-1.078l0,-16.723c0,-1.37 2.157,-1.37 2.157,0l0,15.877l10.894,0c1.487,0 1.487,1.924 0,1.924l-11.943,0Z" style="fill:#fff;fill-rule:nonzero;"/><path d="M141.157,395.497l-11.943,0c-0.913,0 -1.399,-0.471 -1.399,-1.369l0,-16.723c0,-1.73 2.739,-1.73 2.739,0l0,15.586l10.603,0c0.923,0 1.404,0.631 1.404,1.253c0,0.33 -0.131,0.641 -0.369,0.87c-0.175,0.174 -0.5,0.383 -1.035,0.383Zm-11.972,-18.831c-0.292,0 -0.787,0.156 -0.787,0.734l0,16.723c0,0.573 0.223,0.787 0.816,0.787l11.943,0c0.268,0 0.486,-0.078 0.632,-0.219c0.121,-0.117 0.189,-0.282 0.189,-0.452c0,-0.335 -0.252,-0.67 -0.821,-0.67l-11.185,0l0,-16.169c0,-0.578 -0.496,-0.734 -0.787,-0.734Z" style="fill:#fff;fill-rule:nonzero;"/><path d="M162.811,390.31l-2.361,4.604c-0.525,1.079 -2.448,0.321 -1.923,-0.845l8.796,-17.335c0.175,-0.379 0.583,-0.553 0.961,-0.553c0.379,0 0.729,0.174 0.933,0.553l8.772,17.248c0.758,1.253 -1.399,1.982 -1.953,0.845l-2.273,-4.517l-10.952,0Zm5.478,-11.011l-4.604,9.18l9.18,0l-4.576,-9.18Z" style="fill:#fff;fill-rule:nonzero;"/><path d="M159.59,395.726c-0.228,0 -0.461,-0.054 -0.665,-0.151c-0.675,-0.316 -0.947,-0.986 -0.661,-1.622l8.806,-17.35c0.204,-0.437 0.67,-0.714 1.224,-0.714c0.515,0 0.947,0.258 1.19,0.709l8.772,17.253c0.238,0.393 0.258,0.816 0.049,1.17c-0.248,0.418 -0.773,0.69 -1.355,0.661c-0.525,-0.02 -0.952,-0.287 -1.166,-0.729l-2.191,-4.352l-10.598,0l-2.278,4.445c-0.238,0.476 -0.68,0.68 -1.127,0.68Zm8.699,-19.254c-0.238,0 -0.563,0.102 -0.699,0.384l-8.801,17.344c-0.238,0.525 0.277,0.797 0.379,0.846c0.291,0.14 0.806,0.179 1.02,-0.258l2.443,-4.769l11.312,0l2.351,4.677c0.165,0.335 0.49,0.398 0.67,0.403c0.345,0.01 0.69,-0.146 0.826,-0.374c0.102,-0.17 0.082,-0.369 -0.054,-0.593l-8.781,-17.267c-0.165,-0.325 -0.452,-0.393 -0.666,-0.393Zm5.047,12.293l-10.122,0l5.075,-10.122l5.047,10.122Zm-9.175,-0.582l8.233,0l-4.105,-8.233l-4.128,8.233Z" style="fill:#fff;fill-rule:nonzero;"/><path d="M220.197,394.419c0,1.341 -2.098,1.311 -2.098,0.029l0,-16.781c0,-0.612 0.495,-1.02 1.078,-1.02l6.324,0c5.042,0 7.403,3.351 7.403,6.703c0,3.497 -2.39,6.382 -7.49,6.382l-5.217,0l0,4.687Zm5.212,-6.586c3.876,0 5.479,-2.273 5.421,-4.488c-0.03,-2.39 -1.924,-4.809 -5.304,-4.809l-5.334,0l0,9.297l5.217,0Z" style="fill:#fff;fill-rule:nonzero;"/><path d="M219.148,395.706c-0.665,0 -1.34,-0.432 -1.34,-1.258l0,-16.781c0,-0.748 0.587,-1.312 1.369,-1.312l6.324,0c5.285,0 7.694,3.624 7.694,6.995c0,3.225 -2.045,6.673 -7.781,6.673l-4.925,0l0,4.401c0,0.398 -0.151,0.733 -0.433,0.971c-0.242,0.199 -0.568,0.311 -0.908,0.311Zm0.029,-18.768c-0.393,0 -0.787,0.253 -0.787,0.729l0,16.781c0,0.534 0.476,0.675 0.758,0.675c0.204,0 0.398,-0.063 0.534,-0.179c0.151,-0.127 0.224,-0.302 0.224,-0.53l0,-4.983l5.503,0c5.304,0 7.198,-3.148 7.198,-6.091c0,-3.191 -2.2,-6.411 -7.111,-6.411l-6.319,0l0,0.009Zm6.232,11.186l-5.508,0l0,-9.879l5.625,0c3.594,0 5.561,2.623 5.595,5.095c0.034,1.209 -0.403,2.346 -1.224,3.186c-1.015,1.049 -2.569,1.598 -4.488,1.598Zm0,-0.583c1.758,0 3.167,-0.49 4.07,-1.418c0.709,-0.728 1.088,-1.714 1.059,-2.768c-0.029,-2.196 -1.792,-4.522 -5.012,-4.522l-5.042,0l0,8.708l4.925,0Z" style="fill:#fff;fill-rule:nonzero;"/><path d="M252.429,395.206c-0.787,0 -1.107,-0.379 -1.107,-1.078l0,-16.723c0,-1.37 2.156,-1.37 2.156,0l0,15.877l10.895,0c1.486,0 1.486,1.924 0,1.924l-11.944,0Z" style="fill:#fff;fill-rule:nonzero;"/><path d="M264.373,395.497l-11.944,0c-0.913,0 -1.399,-0.471 -1.399,-1.369l0,-16.723c0,-1.73 2.74,-1.73 2.74,0l0,15.586l10.603,0c0.923,0 1.404,0.631 1.404,1.253c0,0.33 -0.132,0.641 -0.37,0.87c-0.174,0.174 -0.5,0.383 -1.034,0.383Zm-11.973,-18.831c-0.291,0 -0.787,0.156 -0.787,0.734l0,16.723c0,0.573 0.224,0.787 0.816,0.787l11.944,0c0.267,0 0.486,-0.078 0.631,-0.219c0.122,-0.117 0.19,-0.282 0.19,-0.452c0,-0.335 -0.253,-0.67 -0.821,-0.67l-11.186,0l0,-16.169c0,-0.578 -0.496,-0.734 -0.787,-0.734Z" style="fill:#fff;fill-rule:nonzero;"/><path d="M286.026,390.31l-2.361,4.604c-0.524,1.079 -2.448,0.321 -1.923,-0.845l8.796,-17.335c0.175,-0.379 0.583,-0.553 0.962,-0.553c0.379,0 0.728,0.174 0.932,0.553l8.772,17.248c0.758,1.253 -1.399,1.982 -1.952,0.845l-2.273,-4.517l-10.953,0Zm5.479,-11.011l-4.605,9.18l9.18,0l-4.575,-9.18Z" style="fill:#fff;fill-rule:nonzero;"/><path d="M282.806,395.726c-0.229,0 -0.462,-0.054 -0.666,-0.151c-0.675,-0.316 -0.947,-0.986 -0.66,-1.622l8.806,-17.35c0.204,-0.437 0.67,-0.714 1.224,-0.714c0.514,0 0.947,0.258 1.19,0.709l8.771,17.253c0.238,0.393 0.258,0.816 0.049,1.17c-0.248,0.418 -0.782,0.69 -1.355,0.661c-0.525,-0.02 -0.952,-0.287 -1.166,-0.729l-2.19,-4.352l-10.599,0l-2.278,4.445c-0.238,0.476 -0.68,0.68 -1.126,0.68Zm8.699,-19.254c-0.238,0 -0.564,0.102 -0.7,0.384l-8.801,17.344c-0.238,0.525 0.277,0.797 0.379,0.846c0.291,0.14 0.806,0.179 1.02,-0.258l2.443,-4.769l11.312,0l2.351,4.677c0.165,0.335 0.491,0.398 0.67,0.403c0.345,0.01 0.69,-0.146 0.826,-0.374c0.102,-0.17 0.083,-0.369 -0.053,-0.593l-8.782,-17.267c-0.165,-0.325 -0.456,-0.393 -0.665,-0.393Zm5.046,12.293l-10.122,0l5.076,-10.122l5.046,10.122Zm-9.175,-0.582l8.233,0l-4.104,-8.233l-4.129,8.233Z" style="fill:#fff;fill-rule:nonzero;"/><path d="M329.915,376.647c1.428,0 1.428,2.011 0,2.011l-6.499,0c0,5.245 0.029,10.574 0.029,15.819c0,0.729 -0.612,1.079 -1.107,1.079c-0.496,0 -1.05,-0.35 -1.05,-1.079l0,-15.819l-6.469,0c-1.37,0 -1.37,-2.011 0,-2.011l15.096,0Z" style="fill:#fff;fill-rule:nonzero;"/><path d="M322.338,395.847c-0.651,0 -1.341,-0.481 -1.341,-1.37l0,-15.528l-6.178,0c-0.865,0 -1.321,-0.651 -1.321,-1.297c0,-0.335 0.116,-0.651 0.335,-0.889c0.17,-0.189 0.476,-0.408 0.986,-0.408l15.091,0c0.894,0 1.36,0.651 1.36,1.297c0,0.646 -0.466,1.297 -1.36,1.297l-6.208,0c0,2.526 0.01,5.071 0.015,7.616c0.01,2.642 0.015,5.289 0.015,7.912c0.004,0.855 -0.705,1.37 -1.394,1.37Zm-7.514,-18.909c-0.238,0 -0.423,0.073 -0.554,0.219c-0.117,0.126 -0.18,0.306 -0.18,0.495c0,0.355 0.229,0.714 0.739,0.714l6.751,0l0,16.111c0,0.622 0.495,0.787 0.758,0.787c0.315,0 0.816,-0.214 0.816,-0.787c0,-2.623 -0.01,-5.265 -0.015,-7.907c-0.01,-2.642 -0.015,-5.289 -0.015,-7.912l0,-0.292l6.791,0c0.539,0 0.777,-0.359 0.777,-0.714c0,-0.354 -0.243,-0.714 -0.777,-0.714l-15.091,0Z" style="fill:#fff;fill-rule:nonzero;"/><path d="M347.488,390.31l-2.361,4.604c-0.524,1.079 -2.448,0.321 -1.923,-0.845l8.796,-17.335c0.175,-0.379 0.583,-0.553 0.962,-0.553c0.379,0 0.728,0.174 0.932,0.553l8.772,17.248c0.758,1.253 -1.399,1.982 -1.952,0.845l-2.273,-4.517l-10.953,0Zm5.479,-11.011l-4.605,9.18l9.18,0l-4.575,-9.18Z" style="fill:#fff;fill-rule:nonzero;"/><path d="M344.268,395.726c-0.229,0 -0.462,-0.054 -0.666,-0.151c-0.675,-0.316 -0.947,-0.986 -0.66,-1.622l8.805,-17.35c0.204,-0.437 0.671,-0.714 1.224,-0.714c0.515,0 0.948,0.258 1.19,0.709l8.772,17.253c0.238,0.393 0.258,0.816 0.049,1.17c-0.248,0.418 -0.777,0.69 -1.355,0.661c-0.525,-0.02 -0.952,-0.287 -1.166,-0.729l-2.19,-4.352l-10.599,0l-2.278,4.445c-0.238,0.476 -0.68,0.68 -1.126,0.68Zm8.699,-19.254c-0.238,0 -0.564,0.102 -0.7,0.384l-8.801,17.344c-0.238,0.525 0.277,0.797 0.379,0.846c0.291,0.14 0.806,0.179 1.02,-0.258l2.443,-4.769l11.312,0l2.351,4.677c0.165,0.335 0.491,0.398 0.67,0.403c0.35,0.01 0.69,-0.146 0.826,-0.374c0.102,-0.17 0.083,-0.369 -0.053,-0.593l-8.782,-17.267c-0.17,-0.325 -0.457,-0.393 -0.665,-0.393Zm5.046,12.293l-10.122,0l5.076,-10.122l5.046,10.122Zm-9.18,-0.582l8.233,0l-4.104,-8.233l-4.129,8.233Z" style="fill:#fff;fill-rule:nonzero;"/><path d="M95.102,335.517c30.391,-1.472 60.782,-2.448 91.173,-3.235l22.795,-0.588l22.794,-0.456c15.193,-0.287 30.391,-0.627 45.584,-0.773l45.584,-0.558l45.584,-0.272l2.851,-0.015l1.423,-0.009c0.476,0 0.982,0 1.297,-0.034c0.724,-0.039 1.453,-0.059 2.167,-0.195c0.723,-0.068 1.428,-0.267 2.132,-0.427c2.812,-0.729 5.44,-2.186 7.732,-4.066c2.23,-1.957 4.178,-4.352 5.44,-7.135l0.481,-1.039l0.394,-1.083c0.296,-0.7 0.447,-1.496 0.675,-2.244l1.452,-5.829c3.876,-15.727 7.83,-31.435 11.876,-47.114l12.308,-46.997l12.516,-46.939l3.133,-11.735l1.559,-5.868l0.773,-2.938c0.252,-0.972 0.549,-2.001 0.675,-2.817c1.588,-6.893 0.146,-14.581 -3.949,-20.405c-4.022,-5.882 -10.584,-9.656 -17.452,-10.03c-0.437,-0.029 -0.84,-0.083 -1.306,-0.097l-1.423,-0.02l-2.851,-0.038l-5.698,-0.083l-11.395,-0.131c-60.782,-0.481 -121.564,0.272 -182.341,1.685l-45.584,1.011l-22.794,0.5l-5.697,0.102l-2.852,0.048l-0.714,0.015c-0.233,0.005 -0.388,0.024 -0.587,0.039l-1.132,0.068c-2.997,0.354 -5.926,1.316 -8.495,2.968c-0.666,0.369 -1.253,0.874 -1.88,1.306c-0.568,0.52 -1.19,0.967 -1.71,1.54c-1.117,1.059 -2.059,2.297 -2.924,3.584c-0.864,1.292 -1.534,2.706 -2.146,4.144l-0.389,1.097l-0.199,0.564l-0.223,0.723l-0.904,2.895l-7.213,23.144l-14.518,46.26l-14.547,46.249l-3.652,11.555l-1.827,5.775l-0.228,0.724l-0.112,0.359l-0.063,0.272l-0.262,1.088l-0.282,1.079c-0.068,0.364 -0.092,0.733 -0.141,1.102c-0.427,2.919 -0.252,5.906 0.515,8.738c0.773,2.832 2.162,5.474 3.973,7.694c1.812,2.224 4.061,4.007 6.538,5.192c2.482,1.19 5.163,1.778 7.951,1.817l22.795,-0.068l45.584,0.038c30.391,0.132 60.782,0.34 91.173,0.739l45.584,0.578l45.584,0.782l5.697,0.102l1.389,0.019l1.137,-0.029c0.757,0.01 1.505,-0.151 2.263,-0.209c2.978,-0.539 5.926,-1.622 8.476,-3.453c1.316,-0.855 2.462,-1.967 3.58,-3.099c1.049,-1.205 2.064,-2.463 2.865,-3.881c0.442,-0.685 0.763,-1.442 1.142,-2.166c0.286,-0.772 0.675,-1.501 0.893,-2.307l0.389,-1.185l0.403,-1.458l0.806,-2.924l6.47,-23.401l6.557,-23.377c8.743,-31.169 17.607,-62.298 26.787,-93.335l1.35,0.394c-6.829,31.726 -13.969,63.361 -21.235,94.956l-5.45,23.698l-5.537,23.674l-0.694,2.958l-0.35,1.481l-0.476,1.724c-0.287,1.161 -0.767,2.254 -1.161,3.381c-0.49,1.078 -0.937,2.19 -1.525,3.22c-1.093,2.113 -2.477,4.036 -3.958,5.858c-1.555,1.748 -3.201,3.434 -5.076,4.804c-3.667,2.865 -7.99,4.735 -12.468,5.668c-1.127,0.16 -2.259,0.403 -3.4,0.452l-1.71,0.097l-1.457,0.034l-5.698,0.102l-45.584,0.782l-45.584,0.578c-30.391,0.403 -60.782,0.607 -91.173,0.738l-45.584,0.039l-22.794,-0.068c-4.814,-0.039 -9.714,-1.176 -14.125,-3.39c-4.424,-2.201 -8.359,-5.445 -11.482,-9.399c-3.123,-3.949 -5.464,-8.607 -6.766,-13.61c-1.297,-5.002 -1.539,-10.326 -0.728,-15.416c0.102,-0.636 0.179,-1.282 0.306,-1.909l0.48,-1.86l0.501,-1.851l0.126,-0.461l0.121,-0.365l0.238,-0.718l1.9,-5.751l3.803,-11.502l15.28,-45.977l15.305,-45.963l7.699,-22.965l0.961,-2.87l0.243,-0.719l0.316,-0.86l0.651,-1.729c0.995,-2.244 2.117,-4.434 3.531,-6.406c1.404,-1.972 2.958,-3.828 4.731,-5.421c0.85,-0.84 1.807,-1.535 2.729,-2.278c0.977,-0.661 1.924,-1.365 2.953,-1.918c4.042,-2.38 8.578,-3.716 13.144,-4.061l1.714,-0.049l0.816,-0.019l0.714,0.015l2.852,0.048l5.697,0.102l22.794,0.5l45.584,1.011c60.782,1.413 121.564,2.166 182.341,1.685l11.395,-0.131l5.698,-0.083l2.851,-0.043l1.423,-0.02c0.481,0 1.025,0.039 1.54,0.059c4.148,0.131 8.305,1.238 12.045,3.259c3.75,2.01 7.058,4.93 9.71,8.427c2.647,3.502 4.594,7.64 5.619,12.06c1.035,4.42 1.142,9.088 0.321,13.595c-0.165,1.195 -0.403,2.118 -0.622,3.118l-0.66,2.968l-1.307,5.935l-2.599,11.881l-10.394,47.517l-10.603,47.459c-3.594,15.805 -7.281,31.586 -11.04,47.342l-1.428,5.974c-0.33,1.19 -0.607,2.39 -1.064,3.561c-0.214,0.587 -0.422,1.175 -0.651,1.758l-0.772,1.7c-2.084,4.527 -5.207,8.456 -8.859,11.613c-3.701,3.099 -8.024,5.382 -12.609,6.514c-1.152,0.267 -2.298,0.539 -3.468,0.66c-1.166,0.19 -2.337,0.233 -3.507,0.267c-0.632,0.03 -1.079,0.02 -1.55,0.02l-1.423,-0.01l-2.851,-0.014l-45.584,-0.272l-45.584,-0.559c-15.193,-0.151 -30.391,-0.486 -45.584,-0.772l-22.794,-0.457l-22.795,-0.588c-30.391,-0.786 -60.782,-1.767 -91.173,-3.234l0,-1.501l-0.005,0Z" style="fill:#fff;fill-rule:nonzero;"/><path d="M213.461,183.747l0,18.908l-50.272,0l0,12.133c0,3.361 1.181,6.227 3.546,8.588c2.365,2.365 5.226,3.545 8.587,3.545l47.911,0l0,18.909l-47.911,0c-4.308,0 -8.354,-0.811 -12.133,-2.443c-3.783,-1.627 -7.067,-3.832 -9.85,-6.62c-2.783,-2.783 -4.993,-6.067 -6.62,-9.85c-1.632,-3.784 -2.443,-7.825 -2.443,-12.134l0,-50.106l18.909,0l0,19.07l50.276,0Z" style="fill:#fff;fill-rule:nonzero;"/><path d="M274.767,183.747l42.077,0c4.202,0 8.194,0.816 11.978,2.443c3.784,1.632 7.091,3.837 9.928,6.62c2.836,2.783 5.066,6.066 6.698,9.85c1.627,3.784 2.443,7.83 2.443,12.133l0,31.047l-19.069,0l0,-31.047c0,-3.361 -1.156,-6.227 -3.468,-8.587c-2.312,-2.366 -5.149,-3.546 -8.51,-3.546l-42.077,0c-3.361,0 -6.227,1.18 -8.587,3.546c-2.366,2.365 -3.546,5.226 -3.546,8.587l0,31.047l-18.914,0l0,-31.047c0,-4.308 0.811,-8.354 2.443,-12.133c1.628,-3.784 3.833,-7.062 6.621,-9.85c2.783,-2.783 6.066,-4.988 9.85,-6.62c3.779,-1.632 7.825,-2.443 12.133,-2.443Z" style="fill:#fff;fill-rule:nonzero;"/></g></svg>