<svg width="802" height="601" viewBox="0 0 802 601" fill="none" xmlns="http://www.w3.org/2000/svg">
<path d="M151.948 599.229C150.329 599.229 149.668 598.448 149.668 597.009V562.577C149.668 559.758 154.107 559.758 154.107 562.577V595.27H176.541C179.6 595.27 179.6 599.229 176.541 599.229H151.948Z" fill="white"/>
<path d="M176.541 599.829H151.948C151.563 599.882 151.17 599.847 150.801 599.725C150.431 599.603 150.095 599.398 149.817 599.126C149.539 598.854 149.326 598.521 149.197 598.154C149.067 597.788 149.023 597.396 149.068 597.009V562.577C149.068 559.012 154.707 559.012 154.707 562.577V594.67H176.541C176.903 594.637 177.268 594.679 177.614 594.793C177.959 594.907 178.277 595.09 178.548 595.332C178.82 595.574 179.039 595.869 179.191 596.199C179.344 596.528 179.427 596.886 179.436 597.25C179.437 597.584 179.371 597.915 179.241 598.223C179.111 598.531 178.92 598.809 178.68 599.041C178.393 599.307 178.056 599.514 177.689 599.649C177.322 599.784 176.932 599.845 176.541 599.829ZM151.888 561.063C151.68 561.047 151.471 561.074 151.274 561.143C151.077 561.212 150.897 561.321 150.744 561.464C150.592 561.606 150.471 561.779 150.389 561.97C150.307 562.162 150.266 562.369 150.268 562.577V597.009C150.268 598.189 150.724 598.629 151.948 598.629H176.541C177.018 598.655 177.485 598.494 177.845 598.18C177.969 598.059 178.068 597.915 178.135 597.755C178.203 597.595 178.237 597.423 178.236 597.25C178.236 596.563 177.712 595.87 176.541 595.87H153.507V562.577C153.509 562.369 153.468 562.162 153.386 561.97C153.304 561.779 153.183 561.606 153.031 561.464C152.878 561.321 152.698 561.212 152.501 561.143C152.304 561.074 152.095 561.047 151.888 561.063Z" fill="white"/>
<path d="M221.127 589.151L216.269 598.629C215.19 600.848 211.229 599.29 212.31 596.89L230.425 561.199C230.613 560.841 230.898 560.543 231.249 560.341C231.6 560.139 232.001 560.04 232.405 560.058C232.8 560.049 233.19 560.151 233.529 560.353C233.869 560.554 234.144 560.848 234.325 561.199L252.381 596.709C253.94 599.29 249.501 600.787 248.361 598.448L243.683 589.151H221.127ZM232.405 566.477L222.927 585.373H241.822L232.405 566.477Z" fill="white"/>
<path d="M214.492 600.295C214.017 600.294 213.548 600.189 213.118 599.988C212.801 599.867 212.513 599.683 212.272 599.446C212.03 599.209 211.84 598.925 211.712 598.611C211.585 598.297 211.524 597.961 211.532 597.622C211.54 597.284 211.618 596.951 211.761 596.644L229.887 560.927C230.131 560.483 230.49 560.113 230.926 559.854C231.362 559.596 231.859 559.459 232.366 559.458C232.872 559.456 233.37 559.591 233.807 559.847C234.244 560.104 234.605 560.473 234.851 560.916L252.913 596.438C253.153 596.79 253.289 597.203 253.306 597.629C253.323 598.055 253.221 598.477 253.009 598.848C252.709 599.303 252.292 599.67 251.802 599.909C251.312 600.149 250.766 600.252 250.223 600.21C249.722 600.208 249.233 600.067 248.808 599.802C248.384 599.538 248.042 599.16 247.82 598.711L243.311 589.751H221.492L216.801 598.903C216.593 599.334 216.264 599.695 215.854 599.943C215.444 600.19 214.971 600.312 214.492 600.295ZM232.403 560.658C232.114 560.644 231.826 560.71 231.573 560.85C231.319 560.991 231.11 561.199 230.968 561.451L212.843 597.162C212.776 597.327 212.742 597.504 212.745 597.682C212.748 597.861 212.788 598.037 212.861 598.2C212.934 598.362 213.04 598.508 213.171 598.629C213.303 598.75 213.458 598.842 213.626 598.901C213.799 599.004 213.991 599.072 214.19 599.101C214.389 599.13 214.592 599.119 214.787 599.07C214.982 599.02 215.166 598.932 215.327 598.812C215.488 598.691 215.624 598.54 215.726 598.366L220.758 588.551H244.052L248.895 598.179C249.025 598.432 249.222 598.643 249.466 598.79C249.709 598.937 249.988 599.013 250.272 599.011C250.598 599.034 250.925 598.976 251.222 598.841C251.52 598.706 251.779 598.498 251.976 598.237C252.075 598.045 252.118 597.828 252.098 597.613C252.079 597.397 251.998 597.191 251.866 597.02L233.788 561.471C233.659 561.218 233.46 561.007 233.214 560.863C232.969 560.719 232.688 560.648 232.403 560.658ZM242.789 585.973H221.952L232.404 565.136L242.789 585.973ZM223.898 584.773H240.851L232.402 567.819L223.898 584.773Z" fill="white"/>
<path d="M339.265 587.951V597.609C339.265 600.368 334.945 600.309 334.945 597.67V563.119C334.947 562.833 335.006 562.551 335.12 562.289C335.234 562.027 335.399 561.791 335.606 561.594C335.814 561.398 336.059 561.246 336.327 561.147C336.595 561.048 336.88 561.004 337.165 561.019H350.182C360.56 561.019 365.419 567.916 365.419 574.814C365.419 582.014 360.499 587.951 350.002 587.951H339.265ZM339.265 584.053H350.002C357.98 584.053 361.28 579.373 361.16 574.814C361.099 569.897 357.199 564.916 350.243 564.916H339.265V584.053Z" fill="white"/>
<path d="M337.106 600.264C336.752 600.285 336.398 600.234 336.064 600.114C335.73 599.993 335.425 599.806 335.167 599.563C334.908 599.32 334.702 599.027 334.561 598.701C334.421 598.376 334.348 598.025 334.348 597.67V563.119C334.347 562.754 334.421 562.393 334.564 562.057C334.708 561.722 334.917 561.419 335.181 561.166C335.444 560.914 335.756 560.718 336.098 560.589C336.439 560.461 336.803 560.403 337.167 560.419H350.184C361.065 560.419 366.021 567.881 366.021 574.814C366.021 581.455 361.813 588.551 350.004 588.551H339.867V597.609C339.879 597.989 339.805 598.366 339.651 598.712C339.498 599.059 339.268 599.367 338.979 599.613C338.45 600.043 337.788 600.273 337.106 600.264ZM337.167 561.619C336.961 561.605 336.754 561.633 336.559 561.702C336.364 561.771 336.186 561.879 336.034 562.019C335.882 562.16 335.761 562.33 335.677 562.519C335.594 562.708 335.55 562.912 335.548 563.119V597.67C335.551 597.866 335.595 598.06 335.677 598.238C335.758 598.417 335.876 598.577 336.023 598.707C336.169 598.838 336.341 598.937 336.527 598.999C336.714 599.06 336.911 599.082 337.106 599.064C337.504 599.072 337.893 598.941 338.206 598.694C338.36 598.56 338.481 598.393 338.561 598.205C338.641 598.017 338.678 597.813 338.667 597.609V587.351H350.004C360.928 587.351 364.821 580.875 364.821 574.814C364.821 568.246 360.295 561.619 350.184 561.619H337.167ZM350.004 584.653H338.667V564.316H350.245C357.641 564.316 361.699 569.721 361.763 574.807C361.806 576.014 361.605 577.218 361.172 578.346C360.738 579.474 360.082 580.502 359.242 581.371C357.15 583.518 353.956 584.653 350.004 584.653ZM339.867 583.453H350.004C353.624 583.453 356.522 582.443 358.382 580.534C359.111 579.779 359.679 578.884 360.054 577.904C360.429 576.924 360.602 575.878 360.563 574.829C360.506 570.31 356.872 565.516 350.245 565.516H339.867V583.453Z" fill="white"/>
<path d="M405.628 599.229C404.009 599.229 403.348 598.448 403.348 597.009V562.577C403.348 559.758 407.787 559.758 407.787 562.577V595.27H430.221C433.28 595.27 433.28 599.229 430.221 599.229H405.628Z" fill="white"/>
<path d="M430.221 599.829H405.628C405.243 599.882 404.85 599.847 404.48 599.725C404.111 599.603 403.774 599.398 403.496 599.126C403.218 598.854 403.006 598.521 402.876 598.154C402.747 597.788 402.703 597.396 402.748 597.009V562.577C402.748 559.012 408.387 559.012 408.387 562.577V594.67H430.221C430.583 594.637 430.948 594.679 431.293 594.793C431.638 594.906 431.957 595.09 432.228 595.332C432.499 595.574 432.718 595.869 432.871 596.199C433.024 596.528 433.107 596.886 433.116 597.25C433.117 597.584 433.051 597.915 432.921 598.223C432.791 598.531 432.6 598.809 432.36 599.041C432.073 599.307 431.736 599.514 431.369 599.649C431.002 599.784 430.612 599.845 430.221 599.829ZM405.567 561.063C405.359 561.047 405.15 561.074 404.954 561.143C404.757 561.212 404.576 561.321 404.424 561.464C404.272 561.606 404.151 561.779 404.069 561.97C403.987 562.162 403.945 562.369 403.948 562.577V597.009C403.948 598.189 404.404 598.629 405.628 598.629H430.221C430.697 598.655 431.165 598.494 431.524 598.18C431.649 598.059 431.748 597.915 431.815 597.755C431.882 597.595 431.916 597.423 431.916 597.25C431.916 596.563 431.392 595.87 430.221 595.87H407.187V562.577C407.189 562.369 407.148 562.162 407.066 561.97C406.984 561.779 406.863 561.606 406.71 561.464C406.558 561.321 406.378 561.212 406.181 561.143C405.984 561.074 405.775 561.047 405.567 561.063Z" fill="white"/>
<path d="M474.803 589.151L469.944 598.629C468.866 600.848 464.905 599.29 465.986 596.89L484.101 561.199C484.288 560.841 484.574 560.543 484.925 560.341C485.276 560.139 485.677 560.04 486.081 560.058C486.476 560.048 486.865 560.151 487.205 560.353C487.544 560.554 487.82 560.848 488.001 561.199L506.057 596.709C507.616 599.29 503.176 600.787 502.037 598.448L497.359 589.151H474.803ZM486.081 566.477L476.603 585.373H495.498L486.081 566.477Z" fill="white"/>
<path d="M468.172 600.295C467.697 600.294 467.228 600.189 466.797 599.988C466.481 599.867 466.193 599.683 465.951 599.446C465.71 599.209 465.519 598.925 465.392 598.611C465.265 598.297 465.203 597.961 465.212 597.622C465.22 597.284 465.298 596.951 465.44 596.644L483.567 560.927C483.811 560.483 484.17 560.113 484.605 559.854C485.041 559.596 485.538 559.459 486.045 559.458C486.552 559.456 487.05 559.591 487.487 559.847C487.924 560.104 488.285 560.473 488.531 560.916L506.593 596.438C506.833 596.79 506.969 597.203 506.986 597.629C507.003 598.055 506.9 598.477 506.689 598.848C506.387 599.302 505.97 599.667 505.48 599.906C504.99 600.145 504.446 600.25 503.902 600.21C503.402 600.208 502.912 600.067 502.488 599.802C502.063 599.538 501.721 599.16 501.5 598.711L496.99 589.751H475.171L470.48 598.903C470.272 599.334 469.943 599.695 469.533 599.943C469.123 600.19 468.65 600.312 468.172 600.295ZM486.083 560.658C485.793 560.644 485.506 560.71 485.252 560.85C484.999 560.991 484.789 561.199 484.647 561.451L466.523 597.162C466.455 597.327 466.422 597.504 466.425 597.682C466.428 597.861 466.467 598.037 466.541 598.2C466.614 598.362 466.719 598.508 466.851 598.629C466.982 598.75 467.137 598.842 467.306 598.901C467.479 599.004 467.67 599.072 467.869 599.101C468.069 599.13 468.271 599.119 468.467 599.07C468.662 599.02 468.845 598.932 469.006 598.812C469.168 598.691 469.303 598.54 469.406 598.366L474.438 588.551H497.731L502.574 598.179C502.704 598.432 502.902 598.643 503.145 598.79C503.388 598.937 503.667 599.013 503.951 599.011C504.277 599.035 504.604 598.977 504.902 598.842C505.2 598.706 505.459 598.499 505.656 598.237C505.755 598.045 505.798 597.828 505.778 597.613C505.759 597.397 505.678 597.191 505.545 597.02L487.468 561.471C487.338 561.218 487.139 561.007 486.894 560.863C486.648 560.719 486.367 560.648 486.083 560.658ZM496.469 585.973H475.632L486.084 565.136L496.469 585.973ZM477.577 584.773H494.531L486.082 567.819L477.577 584.773Z" fill="white"/>
<path d="M565.159 561.019C565.442 561.001 565.725 561.041 565.992 561.137C566.259 561.233 566.503 561.383 566.709 561.576C566.916 561.77 567.08 562.005 567.193 562.265C567.305 562.525 567.364 562.805 567.364 563.088C567.364 563.372 567.305 563.652 567.193 563.912C567.08 564.172 566.916 564.406 566.709 564.6C566.503 564.794 566.259 564.943 565.992 565.039C565.725 565.135 565.442 565.176 565.159 565.158H551.781C551.781 575.955 551.842 586.931 551.842 597.729C551.843 598.026 551.783 598.32 551.668 598.593C551.553 598.867 551.384 599.114 551.171 599.321C550.959 599.528 550.707 599.69 550.43 599.798C550.154 599.906 549.858 599.957 549.562 599.948C549.271 599.954 548.983 599.899 548.715 599.789C548.447 599.679 548.204 599.514 548.001 599.306C547.799 599.098 547.642 598.851 547.539 598.58C547.436 598.308 547.389 598.019 547.403 597.729V565.158H534.086C533.81 565.163 533.537 565.114 533.281 565.013C533.024 564.911 532.791 564.76 532.594 564.567C532.397 564.374 532.241 564.144 532.134 563.89C532.028 563.636 531.973 563.364 531.973 563.088C531.973 562.813 532.028 562.54 532.134 562.286C532.241 562.032 532.397 561.802 532.594 561.609C532.791 561.417 533.024 561.265 533.281 561.164C533.537 561.062 533.81 561.013 534.086 561.019H565.159Z" fill="white"/>
<path d="M549.563 600.548C549.194 600.552 548.829 600.482 548.488 600.341C548.148 600.2 547.839 599.991 547.581 599.728C547.324 599.464 547.122 599.151 546.988 598.808C546.855 598.464 546.792 598.097 546.804 597.729V565.758H534.087C533.73 565.773 533.374 565.714 533.041 565.586C532.708 565.458 532.405 565.263 532.15 565.012C531.895 564.762 531.695 564.462 531.561 564.131C531.427 563.8 531.363 563.445 531.372 563.088C531.365 562.415 531.609 561.764 532.057 561.262C532.315 560.984 532.63 560.764 532.98 560.619C533.33 560.473 533.708 560.405 534.087 560.419H565.16C565.522 560.401 565.884 560.457 566.223 560.583C566.562 560.709 566.873 560.903 567.135 561.152C567.397 561.402 567.606 561.702 567.749 562.035C567.891 562.368 567.965 562.726 567.965 563.088C567.965 563.45 567.891 563.809 567.749 564.141C567.606 564.474 567.397 564.774 567.135 565.024C566.873 565.274 566.562 565.468 566.223 565.594C565.884 565.72 565.522 565.776 565.16 565.758H552.382C552.384 570.96 552.398 576.2 552.413 581.442C552.428 586.885 552.443 592.33 552.443 597.729C552.443 598.104 552.367 598.475 552.222 598.821C552.076 599.167 551.863 599.48 551.595 599.743C551.326 600.005 551.009 600.212 550.66 600.35C550.311 600.488 549.938 600.556 549.563 600.548ZM534.087 561.619C533.876 561.607 533.664 561.641 533.467 561.719C533.27 561.796 533.092 561.916 532.946 562.069C532.7 562.351 532.567 562.714 532.572 563.088C532.564 563.287 532.597 563.486 532.671 563.671C532.745 563.856 532.857 564.024 533 564.162C533.143 564.301 533.314 564.408 533.501 564.476C533.689 564.544 533.888 564.572 534.087 564.558H548.004V597.729C547.992 597.94 548.023 598.151 548.096 598.349C548.169 598.547 548.282 598.728 548.429 598.88C548.575 599.032 548.751 599.153 548.947 599.233C549.142 599.314 549.352 599.353 549.563 599.348C549.78 599.355 549.997 599.319 550.2 599.241C550.403 599.163 550.589 599.044 550.745 598.893C550.902 598.743 551.027 598.562 551.112 598.362C551.198 598.162 551.242 597.946 551.243 597.729C551.243 592.33 551.228 586.888 551.213 581.444C551.198 576.001 551.182 570.557 551.182 565.158V564.558H565.16C565.364 564.576 565.57 564.551 565.763 564.485C565.957 564.42 566.135 564.314 566.286 564.176C566.437 564.038 566.557 563.87 566.64 563.682C566.722 563.495 566.765 563.293 566.765 563.088C566.765 562.884 566.722 562.681 566.64 562.494C566.557 562.307 566.437 562.139 566.286 562C566.135 561.862 565.957 561.757 565.763 561.691C565.57 561.625 565.364 561.601 565.16 561.619H534.087Z" fill="white"/>
<path d="M601.342 589.151L596.483 598.629C595.405 600.848 591.444 599.29 592.525 596.89L610.64 561.199C610.827 560.841 611.113 560.543 611.464 560.341C611.815 560.139 612.216 560.04 612.62 560.058C613.015 560.049 613.404 560.151 613.744 560.353C614.083 560.554 614.359 560.848 614.539 561.199L632.596 596.709C634.154 599.29 629.715 600.787 628.576 598.448L623.898 589.151H601.342ZM612.62 566.477L603.142 585.373H622.037L612.62 566.477Z" fill="white"/>
<path d="M594.711 600.295C594.236 600.294 593.767 600.189 593.336 599.988C593.02 599.867 592.732 599.683 592.491 599.446C592.249 599.209 592.058 598.925 591.931 598.611C591.804 598.297 591.742 597.961 591.751 597.622C591.759 597.284 591.837 596.951 591.98 596.644L610.106 560.927C610.35 560.483 610.709 560.113 611.145 559.854C611.581 559.596 612.078 559.459 612.584 559.458C613.091 559.456 613.589 559.591 614.026 559.847C614.463 560.104 614.824 560.473 615.07 560.916L633.132 596.438C633.372 596.79 633.508 597.203 633.525 597.629C633.542 598.055 633.439 598.477 633.228 598.848C632.927 599.302 632.51 599.668 632.02 599.908C631.53 600.147 630.985 600.251 630.442 600.21C629.941 600.208 629.451 600.067 629.027 599.802C628.602 599.538 628.261 599.16 628.039 598.711L623.53 589.751H601.711L597.02 598.903C596.812 599.334 596.482 599.695 596.073 599.943C595.663 600.19 595.19 600.312 594.711 600.295ZM612.622 560.658C612.333 560.644 612.045 560.71 611.792 560.85C611.538 560.991 611.329 561.199 611.187 561.451L593.062 597.162C592.995 597.327 592.961 597.504 592.964 597.682C592.967 597.861 593.007 598.037 593.08 598.2C593.153 598.362 593.259 598.508 593.39 598.629C593.522 598.75 593.676 598.842 593.845 598.901C594.018 599.004 594.209 599.072 594.409 599.101C594.608 599.13 594.811 599.119 595.006 599.07C595.201 599.02 595.385 598.932 595.546 598.812C595.707 598.691 595.843 598.54 595.945 598.366L600.977 588.551H624.271L629.114 598.179C629.244 598.432 629.441 598.643 629.684 598.79C629.927 598.937 630.207 599.013 630.491 599.011C630.817 599.036 631.144 598.978 631.442 598.843C631.74 598.708 631.999 598.5 632.195 598.237C632.294 598.045 632.337 597.828 632.317 597.613C632.298 597.397 632.217 597.191 632.084 597.02L614.007 561.471C613.878 561.218 613.678 561.007 613.433 560.863C613.188 560.719 612.906 560.648 612.622 560.658ZM623.008 585.973H602.171L612.623 565.136L623.008 585.973ZM604.116 584.773H621.07L612.621 567.819L604.116 584.773Z" fill="white"/>
<path d="M81.7245 476.338C144.293 473.313 206.862 471.296 269.431 469.676L316.358 468.463L363.284 467.527C394.569 466.934 425.853 466.242 457.138 465.934L550.991 464.786L644.844 464.23L650.71 464.195L653.643 464.178C654.625 464.174 655.66 464.176 656.312 464.112C657.807 464.081 659.299 463.947 660.775 463.709C662.257 463.513 663.723 463.218 665.166 462.827C671.013 461.22 676.444 458.365 681.084 454.46C685.815 450.412 689.632 445.403 692.28 439.767L693.265 437.625L694.072 435.399C694.683 433.958 694.991 432.324 695.466 430.782L698.455 418.779C706.436 386.399 714.585 354.064 722.901 321.775L748.246 225.015L774.019 128.37L780.468 104.211L783.675 92.1262L785.266 86.0807C785.783 84.0831 786.4 81.9575 786.658 80.2773C788.268 73.0928 788.376 65.6535 786.978 58.425C785.58 51.1965 782.705 44.3345 778.532 38.2683C774.504 32.3235 769.175 27.3745 762.948 23.7968C756.722 20.2192 749.762 18.1069 742.598 17.6204C741.698 17.5608 740.869 17.4511 739.907 17.4253L736.975 17.3827L731.109 17.298L719.377 17.1281L695.914 16.8558C570.776 15.8611 445.638 17.4178 320.501 20.323L226.647 22.4028L179.721 23.4339L167.989 23.639L162.123 23.7418L160.657 23.7675C160.179 23.7788 159.855 23.8202 159.446 23.8428L157.117 23.9858C150.899 24.67 144.917 26.7591 139.625 30.0953C138.257 30.8574 137.048 31.8941 135.759 32.786C134.588 33.8529 133.31 34.7767 132.239 35.959C129.967 38.1892 127.95 40.6634 126.222 43.3367C124.488 46.0368 123.007 48.8909 121.797 51.8628L121.003 54.1533L120.592 55.3105L120.128 56.7994L118.271 62.7559L103.417 110.407L73.5302 205.644L43.5852 300.859L36.0603 324.648L32.2979 336.543L31.8275 338.03L31.5971 338.765L31.4667 339.327L30.922 341.564L30.3383 343.787C30.1979 344.537 30.1521 345.3 30.0435 346.053C29.1625 352.059 29.5217 358.181 31.099 364.043C32.6988 369.835 35.4861 375.23 39.2837 379.887C42.932 384.393 47.5273 388.042 52.7435 390.573C57.8635 392.999 63.4522 394.276 69.1178 394.314L116.044 394.175L209.898 394.257C272.467 394.529 335.035 395.037 397.604 395.781L491.458 396.97L585.311 398.581L597.042 398.786L599.903 398.822L602.24 398.764C603.805 398.784 605.34 398.456 606.898 398.332C613.17 397.284 619.13 394.856 624.348 391.223C627.024 389.366 629.494 387.229 631.715 384.846C633.948 382.389 635.925 379.711 637.614 376.852C638.52 375.445 639.18 373.882 639.968 372.394C640.559 370.807 641.359 369.302 641.806 367.647L642.602 365.211L643.433 362.208L645.095 356.185L658.414 308.008L671.911 259.883C689.909 195.717 708.294 131.664 727.065 67.7239L729.843 68.5355C715.787 133.854 701.212 199.02 686.12 264.036L674.897 312.825L663.497 361.563L662.069 367.655L661.352 370.707L660.369 374.255C659.778 376.646 658.793 378.896 657.979 381.212C656.968 383.433 656.044 385.722 654.837 387.839C652.541 392.127 649.809 396.167 646.685 399.895C643.566 403.555 640.064 406.87 636.239 409.783C628.686 415.585 619.904 419.578 610.568 421.457C608.243 421.789 605.92 422.283 603.571 422.382L600.047 422.585L597.042 422.653L585.311 422.858L491.458 424.469L397.604 425.658C335.035 426.484 272.467 426.992 209.898 427.181L116.045 427.264L69.1178 427.125C59.0187 427.041 49.0719 424.654 40.0348 420.145C30.8306 415.508 22.7596 408.902 16.3943 400.797C9.86407 392.52 5.12103 382.979 2.46449 372.776C-0.199133 362.408 -0.710117 351.604 0.963152 341.031C1.16925 339.719 1.32827 338.393 1.59267 337.1L2.584 333.275L3.61427 329.463L3.8777 328.514L4.12306 327.764L4.6122 326.284L8.5248 314.445L16.35 290.767L47.8058 196.112L79.3197 101.478L95.1659 54.1947L97.1467 48.284L97.6419 46.8063L98.2936 45.0376L99.6383 41.4814C101.606 36.8481 104.044 32.4288 106.913 28.2928C109.741 24.2293 113.006 20.4885 116.65 17.1375C118.442 15.4796 120.316 13.9133 122.265 12.4448C124.225 11.0259 126.255 9.70811 128.349 8.49661C136.612 3.6837 145.867 0.823558 155.405 0.134796L158.937 0.0301208L160.657 0L162.123 0.0256958L167.989 0.12851L179.721 0.333618L226.647 1.36472L320.501 3.44452C445.638 6.34972 570.776 7.90641 695.914 6.91171L719.377 6.6395L731.109 6.46951L736.975 6.38422L739.907 6.34219C740.901 6.33839 742.022 6.4231 743.074 6.4632C751.75 6.74884 760.24 9.04581 767.876 13.173C775.706 17.4565 782.523 23.3731 787.865 30.5218C793.412 37.9012 797.353 46.3599 799.435 55.3538C801.565 64.5397 801.789 74.0646 800.094 83.3405C799.752 85.8029 799.26 87.6989 798.815 89.758L797.458 95.8668L794.768 108.092L789.422 132.551L768.019 230.381L746.186 328.094C738.785 360.632 731.208 393.122 723.456 425.564L720.514 437.861C719.911 440.341 719.178 442.787 718.32 445.191C717.879 446.399 717.454 447.613 716.983 448.807L715.397 452.309C711.086 461.484 704.869 469.637 697.161 476.222C689.637 482.602 680.762 487.189 671.205 489.637C668.855 490.238 666.469 490.691 664.062 490.992C661.668 491.333 659.255 491.518 656.837 491.546C655.537 491.608 654.617 491.588 653.643 491.582L650.71 491.565L644.844 491.53L550.991 490.973L457.138 489.826C425.853 489.518 394.569 488.826 363.284 488.233L316.358 487.297L269.431 486.084C206.862 484.464 144.293 482.447 81.7245 479.422V476.338Z" fill="white"/>
<path d="M221.905 163.866H325.409V202.801H221.905V227.786C221.897 231.069 222.539 234.321 223.791 237.356C225.044 240.39 226.884 243.147 229.206 245.469C231.527 247.79 234.284 249.63 237.319 250.883C240.353 252.136 243.605 252.777 246.888 252.769H345.525V291.704H246.888C238.303 291.763 229.798 290.051 221.905 286.674C206.604 280.241 194.433 268.07 188 252.769C184.623 244.876 182.911 236.371 182.97 227.786V124.607H221.905V163.866Z" fill="white"/>
<path d="M451.619 163.866H538.251C546.729 163.831 555.123 165.544 562.91 168.896C570.512 172.128 577.443 176.749 583.35 182.523C589.346 188.432 594.099 195.481 597.331 203.254C600.563 211.027 602.208 219.368 602.169 227.786V291.704H562.91V227.786C562.97 224.51 562.368 221.255 561.142 218.217C559.915 215.178 558.089 212.418 555.772 210.102C553.517 207.736 550.795 205.866 547.779 204.609C544.763 203.352 541.518 202.736 538.251 202.801H451.619C448.336 202.793 445.083 203.434 442.049 204.687C439.014 205.94 436.257 207.78 433.936 210.102C431.614 212.424 429.774 215.181 428.521 218.216C427.269 221.25 426.628 224.503 426.636 227.786V291.704H387.701V227.786C387.642 219.2 389.354 210.695 392.73 202.801C399.164 187.5 411.335 175.329 426.636 168.896C434.529 165.521 443.034 163.809 451.619 163.866Z" fill="white"/>
</svg>
